<svg width="30" height="30" viewBox="0 0 30 30" fill="none" xmlns="http://www.w3.org/2000/svg">
<path d="M15 8.75C15 7.42392 14.4732 6.15215 13.5355 5.21447C12.5979 4.27678 11.3261 3.75 10 3.75H2.5V22.5H11.25C12.2446 22.5 13.1984 22.8951 13.9017 23.5983C14.6049 24.3016 15 25.2554 15 26.25M15 8.75V26.25M15 8.75C15 7.42392 15.5268 6.15215 16.4645 5.21447C17.4021 4.27678 18.6739 3.75 20 3.75H27.5V22.5H18.75C17.7554 22.5 16.8016 22.8951 16.0983 23.5983C15.3951 24.3016 15 25.2554 15 26.25" stroke="white" stroke-width="4" stroke-linecap="round" stroke-linejoin="round"/>
</svg>
